<?xml version="1.0" encoding="iso-8859-1"?>
<!-- Generator: Adobe Illustrator 19.0.0, SVG Export Plug-In . SVG Version: 6.00 Build 0)  -->
<svg version="1.1" id="Layer_1" xmlns="http://www.w3.org/2000/svg" xmlns:xlink="http://www.w3.org/1999/xlink" x="0px" y="0px"
	 viewBox="0 0 512 512" style="enable-background:new 0 0 512 512;" xml:space="preserve">
<g>
	<g>
		<path d="M460.228,386.359l-1.828-0.516c-26.469-7.125-35.422-13.938-47.203-18.422c-41.797-15.922-52.672-27.406-55.453-32.828
			c-0.094-0.188-0.172-0.406-0.266-0.594l-0.266-36.531c22.359-29.93,38.344-67.281,38.344-105.977c0,0,15.094-64.32-21-124.852
			l-0.016-0.273c-0.031,0.008-0.078,0.008-0.141,0.016c-7.812-13.07-18.016-25.953-31.297-37.977
			C327.212,15.836,292.946,0,251.618,0c-28.297,0-59.906,7.422-90.547,28.406c-59.438,40.711-53.438,143.383-53.438,143.383
			s4.156,1.047,11.641,2.031c-0.547,5.75-0.828,11.641-0.828,17.672c0,38.695,15.984,76.047,38.344,105.977L156.524,334
			c-0.094,0.188-0.172,0.406-0.266,0.594c-2.781,5.422-13.656,16.906-55.453,32.828c-11.781,4.484-20.734,11.297-47.203,18.422
			l-1.828,0.516c-24.094,7.969-40.297,30.312-40.297,55.531V512h192h52.531h54.125h10.672h106.672h73.047v-70.109
			C500.524,416.672,484.321,394.328,460.228,386.359z M362.29,93.195c5.875,13.367,9.828,27.875,11.734,43.156
			c0.297,2.391,0.547,4.719,0.734,7c-3.437-6.429-7.202-11.906-11.437-16.695c-4.672-5.297-9.906-9.633-15.609-12.977
			C352.024,103.226,357.462,96.952,362.29,93.195z M133.181,118.508c3.109-15.719,7.703-29.609,13.703-41.273
			c6.938-13.547,15.766-24.055,26.234-31.227c23.906-16.375,50.328-24.672,78.5-24.672c36.344,0,65.391,14.039,75.172,22.891
			c9.938,8.992,18.422,19.039,25.391,30c-8.469,5.672-17.844,15.422-24.547,32.156c-3.5-0.602-7.109-0.906-10.797-0.906
			c-15.922,0-33.078,5.383-52.453,16.453c-46.672,26.664-89.844,32.266-117.844,32.266c-6.703,0-12.594-0.328-17.484-0.766
			C129.478,144.094,130.571,131.75,133.181,118.508z M206.212,490.656H32.806V441.89c0-15.906,10.172-29.984,25.328-35.156
			l1.188-0.344c19.953-5.375,30.969-10.641,39.828-14.891c3.422-1.625,6.375-3.062,9.25-4.156c15.75-6,35.406-14.281,49.859-24.812
			l45.297,23.688l7.828-6.625l5.516,27.562L206.212,490.656z M173.915,346.64c0.469-0.766,0.922-1.531,1.328-2.312
			c0.375-0.734,0.656-1.359,0.797-1.734l1.781-3.938l0.031-4.516l0.094-12.328c11.5,11.376,23.735,20.844,35.797,27.813
			l-13.016,11.031L173.915,346.64z M256.009,490.656h-28.297L237.274,416h37.422l10.797,74.656H256.009z M229.993,363.844
			l5.188-4.406c7.297,2.406,14.312,3.688,20.828,3.688c6.844,0,14.266-1.438,21.984-4.078l4.25,3.609l-6.391,31.999H236.15
			L229.993,363.844z M256.009,341.782c-8.844,0-20.453-4-32.703-11.25c-13.703-8.156-27.422-19.812-39.672-33.781
			c-27.875-31.758-43.859-70.125-43.859-105.258c-0.001-5.454,0.265-10.805,0.781-16.048c1.938,0.055,3.922,0.078,5.984,0.078
			c31.219,0,78.016-6.266,128.422-35.07c16.969-9.695,30.688-13.648,41.875-13.648c26.859,0,39.031,22.797,46.344,43.422
			c2.5,7.062,5.641,11.93,8.922,15.258c0.078,1.984,0.125,3.992,0.125,6.008c0,35.133-15.984,73.5-43.859,105.258
			c-12.25,13.969-25.969,25.641-39.672,33.781C276.447,337.782,264.837,341.782,256.009,341.782z M338.492,347.282l-25.578,13.375
			l-13.688-11.594c11.75-6.922,23.641-16.188,34.828-27.25l0.095,12.328l0.031,4.516l1.766,3.938
			c0.156,0.344,0.422,0.984,0.812,1.734C337.274,345.329,337.867,346.313,338.492,347.282z M406.134,490.656h-64v-21.312h64V490.656
			z M479.196,490.656h-51.719V448h-32c0-5.891-4.781-10.656-10.672-10.656h-21.328c-5.891,0-10.672,4.766-10.672,10.656h-32v42.656
			h-13.75l-12.031-83.125l5.828-29.125l9.234,7.812l44.344-23.203c14.391,10.312,33.688,18.438,49.188,24.344
			c2.859,1.078,5.812,2.516,9.234,4.141c8.859,4.25,19.875,9.516,39.828,14.891l1.188,0.344
			c15.172,5.172,25.328,19.25,25.328,35.156V490.656z"/>
	</g>
</g>
<g>
</g>
<g>
</g>
<g>
</g>
<g>
</g>
<g>
</g>
<g>
</g>
<g>
</g>
<g>
</g>
<g>
</g>
<g>
</g>
<g>
</g>
<g>
</g>
<g>
</g>
<g>
</g>
<g>
</g>
</svg>
