<?xml version="1.0" encoding="iso-8859-1"?>
<!-- Generator: Adobe Illustrator 19.0.0, SVG Export Plug-In . SVG Version: 6.00 Build 0)  -->
<svg version="1.1" id="Capa_1" xmlns="http://www.w3.org/2000/svg" xmlns:xlink="http://www.w3.org/1999/xlink" x="0px" y="0px"
	 viewBox="0 0 512 512" style="enable-background:new 0 0 512 512;" xml:space="preserve">
<g>
	<g>
		<path d="M479.219,295.005l-132.97-37.812C361.741,237.598,371,212.861,371,186v-60c0-63.411-51.589-115-115-115
			S141,62.589,141,126v60c0,26.861,9.259,51.598,24.75,71.194L32.78,295.006L0,413.971v11.486l7.074,4.403
			C81.848,476.4,167.925,501,256,501s174.152-24.6,248.926-71.14l7.074-4.403v-11.486L479.219,295.005z M256,41
			c12.059,0,23.531,2.54,33.932,7.088c-7.785,33.116-57.365,60.213-117.839,64.358C178.604,71.998,213.744,41,256,41z M171,142.582
			c37.134-2.056,71.754-11.719,98.746-27.734c13.538-8.033,24.58-17.296,32.906-27.446c1.571,2.908,3.28,5.702,5.145,8.343
			c8.777,12.434,20.368,20.91,32.981,24.425C340.909,122.099,341,186,341,186c0,46.869-38.131,85-85,85c-46.869,0-85-38.131-85-85
			V142.582z M344.35,287.844l-40.016,75.627L301,344.681v-52.855c6.906-2.947,13.465-6.552,19.602-10.735L344.35,287.844z M271,301
			v30h-30v-30H271z M191.398,281.092c6.137,4.181,12.696,7.786,19.602,10.734v52.855l-3.334,18.791l-40.016-75.627L191.398,281.092z
			 M32.208,410.015l25.011-90.769l80.929-23.013l92.333,174.501C161.929,466.712,94.043,446.482,32.208,410.015z M256,454.817
			l-25.516-48.223L238.573,361h34.854l8.089,45.594L256,454.817z M281.519,470.734l92.333-174.501l80.929,23.013l25.011,90.77
			C417.957,446.482,350.071,466.712,281.519,470.734z"/>
	</g>
</g>
<g>
</g>
<g>
</g>
<g>
</g>
<g>
</g>
<g>
</g>
<g>
</g>
<g>
</g>
<g>
</g>
<g>
</g>
<g>
</g>
<g>
</g>
<g>
</g>
<g>
</g>
<g>
</g>
<g>
</g>
</svg>
